# xmcd CD database file
#
# Track frame offsets:
#	150
#	26749
#	45513
#	72112
#
# Disc length: 1209 seconds
#
# Revision: 0
# Processed by: cddbd v1.5.1PL2 Copyright (c) Steve Scherf et al.
# Submitted via: CDex 1.51
#
DISCID=2c04b704
DTITLE=工房いそべもち - 夏蜜柑 〜song for〜
DYEAR=1900
DGENRE=
TTITLE0=夏蜜柑
TTITLE1=stay on high
TTITLE2=夏蜜柑 (Karaoke)
TTITLE3=stay on high (Karaoke)
EXTD=
EXTT0=
EXTT1=
EXTT2=
EXTT3=
PLAYORDER=
